<svg style="display: none">
<svg id="arow" width="16" height="16" viewBox="0 0 16 16" fill="none" xmlns="http://www.w3.org/2000/svg">
<path d="M4 6L8 10L12 6" stroke="inherit" stroke-linecap="round" stroke-linejoin="round"/>
</svg>
<svg id="arow-l" width="24" height="24" viewBox="0 0 24 24" fill="none" xmlns="http://www.w3.org/2000/svg">
<path d="M6 9L12 15L18 9" stroke="inherit" stroke-linecap="round" stroke-linejoin="round"/>
</svg>

<svg id="country" width="24" height="24" viewBox="0 0 24 24" fill="none" xmlns="http://www.w3.org/2000/svg">
<path d="M7 9C7 10.0609 7.42143 11.0783 8.17157 11.8284C8.92172 12.5786 9.93913 13 11 13C12.0609 13 13.0783 12.5786 13.8284 11.8284C14.5786 11.0783 15 10.0609 15 9C15 7.93913 14.5786 6.92172 13.8284 6.17157C13.0783 5.42143 12.0609 5 11 5C9.93913 5 8.92172 5.42143 8.17157 6.17157C7.42143 6.92172 7 7.93913 7 9Z" stroke="white" stroke-linecap="round" stroke-linejoin="round"/>
<path d="M5.75 15C6.59393 15.733 7.58187 16.2814 8.65035 16.61C9.71882 16.9385 10.8442 17.0399 11.9542 16.9076C13.0642 16.7754 14.1342 16.4124 15.0956 15.842C16.057 15.2716 16.8884 14.5065 17.5365 13.5957C18.1845 12.6849 18.6349 11.6486 18.8587 10.5533C19.0825 9.45813 19.0747 8.32822 18.8358 7.2362C18.5969 6.14418 18.1323 5.1142 17.4717 4.21243C16.8111 3.31066 15.9692 2.55705 15 2M11 17V21M7 21H15" stroke="white" stroke-linecap="round" stroke-linejoin="round"/>
</svg>
<svg id="notice" width="18" height="20" viewBox="0 0 18 20" fill="none" xmlns="http://www.w3.org/2000/svg">
<path d="M6 15V16C6 16.7956 6.31607 17.5587 6.87868 18.1213C7.44129 18.6839 8.20435 19 9 19C9.79565 19 10.5587 18.6839 11.1213 18.1213C11.6839 17.5587 12 16.7956 12 16V15M7 3C7 2.46957 7.21071 1.96086 7.58579 1.58579C7.96086 1.21071 8.46957 1 9 1C9.53043 1 10.0391 1.21071 10.4142 1.58579C10.7893 1.96086 11 2.46957 11 3C12.1484 3.54303 13.1274 4.38833 13.8321 5.4453C14.5367 6.50227 14.9404 7.73107 15 9V12C15.0753 12.6217 15.2954 13.2171 15.6428 13.7381C15.9902 14.2592 16.4551 14.6914 17 15H1C1.54494 14.6914 2.00981 14.2592 2.35719 13.7381C2.70457 13.2171 2.92474 12.6217 3 12V9C3.05956 7.73107 3.4633 6.50227 4.16795 5.4453C4.8726 4.38833 5.85159 3.54303 7 3Z" stroke="inherit" stroke-linecap="round" stroke-linejoin="round"/>
</svg>
<svg id="coin" width="19" height="20" viewBox="0 0 19 20" fill="none" xmlns="http://www.w3.org/2000/svg">
<path d="M0.5 10C0.5 11.1819 0.732792 12.3522 1.18508 13.4442C1.63738 14.5361 2.30031 15.5282 3.13604 16.364C3.97177 17.1997 4.96392 17.8626 6.05585 18.3149C7.14778 18.7672 8.3181 19 9.5 19C10.6819 19 11.8522 18.7672 12.9442 18.3149C14.0361 17.8626 15.0282 17.1997 15.864 16.364C16.6997 15.5282 17.3626 14.5361 17.8149 13.4442C18.2672 12.3522 18.5 11.1819 18.5 10C18.5 8.8181 18.2672 7.64778 17.8149 6.55585C17.3626 5.46392 16.6997 4.47177 15.864 3.63604C15.0282 2.80031 14.0361 2.13738 12.9442 1.68508C11.8522 1.23279 10.6819 1 9.5 1C8.3181 1 7.14778 1.23279 6.05585 1.68508C4.96392 2.13738 3.97177 2.80031 3.13604 3.63604C2.30031 4.47177 1.63738 5.46392 1.18508 6.55585C0.732792 7.64778 0.5 8.8181 0.5 10Z" stroke="inherit" stroke-linecap="round" stroke-linejoin="round"/>
<path d="M3.5 10H5.5" stroke="inherit" stroke-linecap="round" stroke-linejoin="round"/>
<path d="M13.5 10H15.5" stroke="inherit" stroke-linecap="round" stroke-linejoin="round"/>
<path d="M5.5 13V6L9.5 10L13.5 6V13" stroke="inherit" stroke-linecap="round" stroke-linejoin="round"/>
</svg>

<svg id='dashboard' width="24" height="24" viewBox="0 0 24 24" fill="none" xmlns="http://www.w3.org/2000/svg">
<path d="M19.0003 8.70977L13.6673 4.56177C13.1993 4.19768 12.6232 4 12.0303 4C11.4373 4 10.8613 4.19768 10.3933 4.56177L5.05927 8.70977C4.739 8.95931 4.47985 9.2786 4.30154 9.64337C4.12323 10.0081 4.03045 10.4088 4.03027 10.8148V18.0148C4.03027 18.5452 4.24099 19.0539 4.61606 19.429C4.99113 19.8041 5.49984 20.0148 6.03027 20.0148H18.0303C18.5607 20.0148 19.0694 19.8041 19.4445 19.429C19.8196 19.0539 20.0303 18.5452 20.0303 18.0148V10.8148C20.0303 9.99177 19.6503 9.21477 19.0003 8.70977Z" stroke="#inherit" stroke-linecap="round" stroke-linejoin="round"/>
<path d="M16 15C13.79 16.333 10.208 16.333 8 15" stroke="#inherit" stroke-linecap="round" stroke-linejoin="round"/>
</svg>

<svg id='offers' width="24" height="24" viewBox="0 0 24 24" fill="none" xmlns="http://www.w3.org/2000/svg">
<path d="M4 19C4 19.5304 4.21071 20.0391 4.58579 20.4142C4.96086 20.7893 5.46957 21 6 21C6.53043 21 7.03914 20.7893 7.41421 20.4142C7.78929 20.0391 8 19.5304 8 19C8 18.4696 7.78929 17.9609 7.41421 17.5858C7.03914 17.2107 6.53043 17 6 17C5.46957 17 4.96086 17.2107 4.58579 17.5858C4.21071 17.9609 4 18.4696 4 19ZM15 19C15 19.5304 15.2107 20.0391 15.5858 20.4142C15.9609 20.7893 16.4696 21 17 21C17.5304 21 18.0391 20.7893 18.4142 20.4142C18.7893 20.0391 19 19.5304 19 19C19 18.4696 18.7893 17.9609 18.4142 17.5858C18.0391 17.2107 17.5304 17 17 17C16.4696 17 15.9609 17.2107 15.5858 17.5858C15.2107 17.9609 15 18.4696 15 19Z" stroke="inherit" stroke-linecap="round" stroke-linejoin="round"/>
<path d="M17 17H6V3H4" stroke="inherit" stroke-linecap="round" stroke-linejoin="round"/>
<path d="M6 5L20 6L19 13H6" stroke="inherit" stroke-linecap="round" stroke-linejoin="round"/>
</svg>

<svg id="flows" width="24" height="24" viewBox="0 0 24 24" fill="none" xmlns="http://www.w3.org/2000/svg">
<path d="M21 17H15.603C14.7991 16.9999 14.007 16.806 13.294 16.4347C12.581 16.0634 11.968 15.5256 11.507 14.867L10.993 14.133C10.532 13.4744 9.91904 12.9366 9.20601 12.5653C8.49298 12.194 7.70092 12.0001 6.897 12H3H6.9C7.70427 11.9999 8.49664 11.8057 9.20987 11.4341C9.9231 11.0624 10.5362 10.5241 10.997 9.865L11.507 9.135C11.9679 8.47572 12.5812 7.93739 13.2946 7.56571C14.008 7.19402 14.8006 6.99996 15.605 7H21" stroke="inherit" stroke-linecap="round" stroke-linejoin="round"/>
<path d="M18 10L21 7L18 4M18 20L21 17L18 14" stroke="inherit" stroke-linecap="round" stroke-linejoin="round"/>
</svg>
<svg id="stats" width="24" height="24" viewBox="0 0 24 24" fill="none" xmlns="http://www.w3.org/2000/svg">
<path d="M3 3V21H21M20 18V21M16 16V21M12 13V21M8 16V21" stroke="inherit" stroke-linecap="round" stroke-linejoin="round"/>
<path d="M3 11C9 11 8 6 12 6C16 6 15 11 21 11" stroke="inherit" stroke-linecap="round" stroke-linejoin="round"/>
</svg>

<svg id="finances" width="24" height="24" viewBox="0 0 24 24" fill="none" xmlns="http://www.w3.org/2000/svg">
<path d="M17 8V5C17 4.73478 16.8946 4.48043 16.7071 4.29289C16.5196 4.10536 16.2652 4 16 4H6C5.46957 4 4.96086 4.21071 4.58579 4.58579C4.21071 4.96086 4 5.46957 4 6M4 6C4 6.53043 4.21071 7.03914 4.58579 7.41421C4.96086 7.78929 5.46957 8 6 8H18C18.2652 8 18.5196 8.10536 18.7071 8.29289C18.8946 8.48043 19 8.73478 19 9V12M4 6V18C4 18.5304 4.21071 19.0391 4.58579 19.4142C4.96086 19.7893 5.46957 20 6 20H18C18.2652 20 18.5196 19.8946 18.7071 19.7071C18.8946 19.5196 19 19.2652 19 19V16" stroke="inherit" stroke-linecap="round" stroke-linejoin="round"/>
<path d="M20 12V16H16C15.4696 16 14.9609 15.7893 14.5858 15.4142C14.2107 15.0391 14 14.5304 14 14C14 13.4696 14.2107 12.9609 14.5858 12.5858C14.9609 12.2107 15.4696 12 16 12H20Z" stroke="inherit" stroke-linecap="round" stroke-linejoin="round"/>
</svg>

<svg id="news" width="24" height="24" viewBox="0 0 24 24" fill="none" xmlns="http://www.w3.org/2000/svg">
<path d="M16 6H19C19.2652 6 19.5196 6.10536 19.7071 6.29289C19.8946 6.48043 20 6.73478 20 7V18C20 18.5304 19.7893 19.0391 19.4142 19.4142C19.0391 19.7893 18.5304 20 18 20M18 20C17.4696 20 16.9609 19.7893 16.5858 19.4142C16.2107 19.0391 16 18.5304 16 18V5C16 4.73478 15.8946 4.48043 15.7071 4.29289C15.5196 4.10536 15.2652 4 15 4H5C4.73478 4 4.48043 4.10536 4.29289 4.29289C4.10536 4.48043 4 4.73478 4 5V17C4 17.7956 4.31607 18.5587 4.87868 19.1213C5.44129 19.6839 6.20435 20 7 20H18ZM8 8H12M8 12H12M8 16H12" stroke="inherit" stroke-linecap="round" stroke-linejoin="round"/>
</svg>

<svg id="api" width="24" height="24" viewBox="0 0 24 24" fill="none" xmlns="http://www.w3.org/2000/svg">
<path d="M15 9.00005H15.01M16.555 3.84305L20.157 7.44505C20.4242 7.71221 20.6362 8.02939 20.7808 8.37847C20.9254 8.72755 20.9998 9.1017 20.9998 9.47955C20.9998 9.8574 20.9254 10.2316 20.7808 10.5806C20.6362 10.9297 20.4242 11.2469 20.157 11.5141L17.514 14.1571C17.2468 14.4243 16.9297 14.6362 16.5806 14.7808C16.2315 14.9254 15.8573 14.9999 15.4795 14.9999C15.1017 14.9999 14.7275 14.9254 14.3784 14.7808C14.0293 14.6362 13.7122 14.4243 13.445 14.1571L13.144 13.8561L6.586 20.4141C6.25372 20.7463 5.81507 20.9509 5.347 20.9921L5.172 21.0001H4C3.75507 21 3.51866 20.9101 3.33563 20.7473C3.15259 20.5846 3.03566 20.3603 3.007 20.1171L3 20.0001V18.8281C3.00011 18.3585 3.16543 17.904 3.467 17.5441L3.586 17.4141L4 17.0001H6V15.0001H8V13.0001L10.144 10.8561L9.843 10.5551C9.5758 10.2879 9.36384 9.97071 9.21923 9.62163C9.07462 9.27255 9.00019 8.8984 9.00019 8.52055C9.00019 8.1427 9.07462 7.76855 9.21923 7.41947C9.36384 7.07039 9.5758 6.75321 9.843 6.48605L12.486 3.84305C12.7532 3.57585 13.0703 3.36389 13.4194 3.21928C13.7685 3.07467 14.1427 3.00024 14.5205 3.00024C14.8983 3.00024 15.2725 3.07467 15.6216 3.21928C15.9707 3.36389 16.2878 3.57585 16.555 3.84305Z" stroke="inherit" stroke-linecap="round" stroke-linejoin="round"/>
</svg>

<svg id="logo-aup" width="73" height="52" viewBox="0 0 73 52" fill="none" xmlns="http://www.w3.org/2000/svg">
<path opacity="0.4" d="M71.076 20.2499C70.091 18.3269 68.498 16.7709 66.289 15.5839C64.089 14.3959 61.272 13.7979 57.849 13.7979H26.504C25.7379 13.7992 25.0036 14.1041 24.4619 14.6458C23.9202 15.1875 23.6153 15.9218 23.614 16.6879V35.5499C23.614 39.2499 22.261 41.0899 19.564 41.0899C16.858 41.0899 15.495 39.2399 15.495 35.5499V16.7439C15.4955 16.357 15.4197 15.9737 15.2719 15.6161C15.1241 15.2585 14.9072 14.9336 14.6337 14.66C14.3601 14.3863 14.0352 14.1693 13.6777 14.0214C13.3202 13.8735 12.9369 13.7975 12.55 13.7979H3.604C2.84723 13.7984 2.12162 14.0993 1.5865 14.6344C1.05139 15.1695 0.75053 15.8951 0.75 16.6519V35.0799C0.75 36.4699 0.897 37.9799 1.192 39.6179C1.486 41.2569 2.232 43.0239 3.419 44.9199C4.607 46.8249 6.521 48.4459 9.163 49.7709C11.796 51.1059 15.266 51.7689 19.565 51.7689C19.013 51.7589 25.005 51.8329 29.718 48.5649C29.6266 48.041 29.6505 47.5035 29.7879 46.9898C29.9253 46.4761 30.173 45.9985 30.5137 45.5902C30.8544 45.1819 31.28 44.8527 31.7608 44.6256C32.2417 44.3984 32.7662 44.2788 33.298 44.2749C33.0289 43.8174 32.8864 43.2966 32.885 42.7659C32.8861 42.0758 33.1258 41.4072 33.5636 40.8737C34.0015 40.3402 34.6103 39.9746 35.287 39.8389C35.49 38.9649 35.609 38.1269 35.692 37.3809C35.674 37.3809 35.646 37.3809 35.618 37.3909C35.471 37.3999 34.422 37.5649 33.428 38.2189C32.7546 38.6661 32.1887 39.2569 31.771 39.9489C31.7032 40.0638 31.6079 40.1601 31.4937 40.2291C31.3794 40.298 31.2498 40.3375 31.1165 40.344C30.9832 40.3504 30.8505 40.3236 30.7301 40.266C30.6097 40.2084 30.5056 40.1218 30.427 40.0139C30.2772 39.808 30.1358 39.5962 30.003 39.3789C29.764 38.9919 29.037 37.6759 28.613 35.7239C28.31 34.3069 28.089 33.2759 28.513 32.1809C29.092 30.6709 30.546 29.9069 31.403 29.5759C31.5564 29.5158 31.6878 29.4104 31.7798 29.2737C31.8718 29.1371 31.92 28.9756 31.918 28.8109C31.908 27.9089 31.964 26.9519 32.102 25.9389C32.13 25.7369 32.166 25.5349 32.194 25.3319C32.204 25.2489 32.222 25.1749 32.24 25.0919L32.295 24.8169L32.351 24.5679C33.731 18.3079 38.241 14.0279 38.241 14.0279C38.2759 13.9924 38.3177 13.9644 38.3638 13.9455C38.4098 13.9266 38.4592 13.9172 38.509 13.9179C38.601 13.9179 38.702 13.9549 38.776 14.0279C38.776 14.0279 39.899 15.0959 41.206 16.9559C42.504 18.8059 43.976 21.4479 44.666 24.5679C44.694 24.6969 44.722 24.8159 44.722 24.8159L44.777 25.0929C44.796 25.1749 44.805 25.2489 44.823 25.3319C45.0172 26.4815 45.1096 27.646 45.099 28.8119C45.099 29.1519 45.302 29.4559 45.615 29.5759C46.471 29.9059 47.925 30.6709 48.505 32.1809C48.929 33.2759 48.708 34.3159 48.404 35.7239C47.99 37.6759 47.254 38.9829 47.014 39.3789C46.876 39.6089 46.729 39.8209 46.591 40.0139C46.5124 40.1218 46.4083 40.2084 46.2879 40.266C46.1675 40.3236 46.0348 40.3504 45.9015 40.344C45.7682 40.3375 45.6386 40.298 45.5243 40.2291C45.4101 40.1601 45.3148 40.0638 45.247 39.9489C44.8293 39.2569 44.2634 38.6661 43.59 38.2189C42.926 37.792 42.1794 37.5099 41.399 37.3909H41.353C41.427 38.2189 41.537 39.0569 41.693 39.8849C42.1398 40.0023 42.5531 40.2222 42.9002 40.527C43.2473 40.8319 43.5187 41.2133 43.6929 41.6412C43.8671 42.0691 43.9392 42.5316 43.9036 42.9922C43.8681 43.4528 43.7258 43.8988 43.488 44.2949C44.3957 44.3809 45.2389 44.8016 45.8534 45.4753C46.4679 46.1489 46.8096 47.0271 46.812 47.9389C46.811 48.2213 46.7767 48.5025 46.71 48.7769C47.835 49.5808 49.09 50.1849 50.42 50.5629C50.503 50.5719 50.595 50.5809 50.678 50.5999C51.017 50.6417 51.3611 50.611 51.6874 50.5098C52.0137 50.4085 52.3147 50.2391 52.5706 50.0128C52.8264 49.7864 53.0312 49.5083 53.1715 49.1968C53.3117 48.8853 53.3842 48.5475 53.384 48.2059V40.8609C53.384 39.9589 54.12 39.2309 55.022 39.2309H57.867C61.282 39.2309 64.089 38.6329 66.289 37.4369C68.489 36.2399 70.091 34.6839 71.076 32.7599C72.07 30.8369 72.558 28.7469 72.558 26.4829C72.558 24.2549 72.061 22.1739 71.076 20.2499ZM57.655 28.8669C57.065 29.3909 56.182 29.6579 55.013 29.6579C54.5798 29.659 54.1639 29.488 53.8568 29.1825C53.5496 28.877 53.3763 28.4621 53.375 28.0289V25.0189C53.375 24.5679 53.559 24.1629 53.853 23.8689C54.1609 23.5617 54.578 23.3891 55.013 23.3889C57.36 23.3889 58.539 24.4289 58.539 26.5009C58.539 27.5509 58.244 28.3329 57.655 28.8669ZM43.055 44.2939C43.111 44.4139 43.175 44.5339 43.231 44.6539C43.3221 44.5452 43.4025 44.428 43.471 44.3039C43.3576 44.293 43.2439 44.2866 43.13 44.2849C43.1049 44.2838 43.0799 44.2872 43.056 44.2949L43.055 44.2939ZM33.612 44.3039C33.52 44.2939 33.418 44.2939 33.317 44.2939H33.289C33.345 44.3859 33.399 44.4779 33.464 44.5609C33.51 44.4689 33.556 44.3869 33.612 44.3039ZM1.459 9.77591C1.35191 9.77804 1.24615 9.75189 1.1524 9.70009C1.05864 9.6483 0.980205 9.57269 0.925 9.48091C0.864852 9.38714 0.829853 9.27946 0.823373 9.16825C0.816893 9.05704 0.839149 8.94603 0.888 8.84591L4.368 0.542907C4.488 0.257907 4.69 0.109907 4.975 0.109907C5.27 0.109907 5.472 0.257907 5.583 0.542907L9.071 8.87291C9.163 9.10291 9.145 9.31491 9.025 9.49991C8.905 9.68391 8.731 9.77591 8.491 9.77591C8.36736 9.77351 8.24657 9.73831 8.141 9.67391C8.03077 9.60531 7.94664 9.50182 7.902 9.37991L4.837 1.75791H5.187L2.067 9.37991C2.01771 9.50487 1.9265 9.6088 1.809 9.67391C1.70476 9.74128 1.58311 9.77673 1.459 9.77591ZM2.122 7.64891L2.619 6.58191H7.469L7.967 7.64891H2.122ZM11.188 9.77591C11.1029 9.77768 11.0184 9.76223 10.9395 9.73049C10.8605 9.69876 10.7888 9.65139 10.7287 9.59123C10.6685 9.53107 10.6212 9.45937 10.5894 9.38043C10.5577 9.3015 10.5422 9.21696 10.544 9.13191V0.753907C10.544 0.560907 10.608 0.413907 10.728 0.293907C10.7888 0.235076 10.8609 0.189224 10.94 0.15914C11.0191 0.129056 11.1035 0.115368 11.188 0.118907H13.416C14.033 0.118907 14.585 0.247907 15.064 0.504907C15.5295 0.750769 15.9181 1.12034 16.187 1.57291C16.454 2.02391 16.592 2.55791 16.592 3.15591C16.5991 3.68383 16.4588 4.20327 16.187 4.65591C15.9168 5.09835 15.5277 5.45595 15.064 5.68791C14.585 5.93591 14.033 6.05591 13.416 6.05591H11.833V9.12991C11.8341 9.29971 11.7717 9.4638 11.658 9.58991C11.5315 9.71062 11.3628 9.77702 11.188 9.77491V9.77591ZM11.833 4.85991H13.416C13.793 4.85991 14.125 4.78691 14.419 4.63991C14.705 4.49191 14.935 4.28991 15.1 4.03191C15.266 3.77391 15.349 3.47891 15.349 3.14791C15.3543 2.80951 15.2687 2.47589 15.101 2.18191C14.9365 1.90666 14.7009 1.68077 14.419 1.52791C14.1102 1.36469 13.7652 1.28214 13.416 1.28791H11.833V4.85991ZM16.325 9.77591C16.2129 9.78102 16.1015 9.75435 16.0039 9.69898C15.9062 9.6436 15.8262 9.56177 15.773 9.46291L13.545 5.87291L14.797 5.51291L16.822 8.78191C16.969 9.02091 16.988 9.24191 16.886 9.45291C16.776 9.67391 16.583 9.77591 16.325 9.77591ZM19.003 9.77591C18.9179 9.77768 18.8334 9.76223 18.7545 9.73049C18.6755 9.69876 18.6038 9.65139 18.5437 9.59123C18.4835 9.53107 18.4361 9.45937 18.4044 9.38043C18.3727 9.3015 18.3572 9.21696 18.359 9.13191V0.753907C18.359 0.560907 18.423 0.413907 18.543 0.293907C18.6038 0.235076 18.6759 0.189224 18.755 0.15914C18.8341 0.129056 18.9185 0.115368 19.003 0.118907H21.958C22.52 0.118907 23.008 0.228907 23.44 0.449907C23.8492 0.65919 24.1954 0.973617 24.443 1.36091C24.683 1.74791 24.812 2.19891 24.812 2.69591C24.812 3.10091 24.702 3.46891 24.48 3.79091C24.26 4.11391 23.965 4.37091 23.587 4.56491C24.131 4.69391 24.572 4.95991 24.895 5.34691C25.225 5.73391 25.392 6.23991 25.392 6.86591C25.392 7.43591 25.254 7.93391 24.987 8.37591C24.7165 8.81765 24.3274 9.17454 23.864 9.40591C23.385 9.65491 22.833 9.78391 22.216 9.78391H19.003V9.77391V9.77591ZM19.648 4.08691H21.958C22.428 4.08691 22.814 3.96691 23.118 3.73691C23.422 3.50691 23.569 3.15691 23.569 2.68691C23.569 2.21791 23.422 1.86891 23.118 1.63791C22.814 1.40791 22.428 1.29791 21.958 1.29791H19.648V4.08691ZM19.648 8.58791H22.225C22.602 8.58791 22.934 8.52391 23.228 8.38591C23.5074 8.26386 23.7447 8.06211 23.91 7.80591C24.075 7.54791 24.158 7.23591 24.158 6.85791C24.158 6.49791 24.075 6.21291 23.91 5.98291C23.7364 5.74809 23.5005 5.56657 23.229 5.45891C22.943 5.33891 22.602 5.28391 22.225 5.28391H19.648V8.58791ZM27.95 9.77591C27.8649 9.77768 27.7804 9.76223 27.7015 9.73049C27.6225 9.69876 27.5508 9.65139 27.4907 9.59123C27.4305 9.53107 27.3832 9.45937 27.3514 9.38043C27.3197 9.3015 27.3042 9.21696 27.306 9.13191V0.753907C27.3034 0.668702 27.3184 0.583877 27.3501 0.504729C27.3817 0.425582 27.4294 0.353813 27.49 0.293907C27.5508 0.235076 27.6229 0.189224 27.702 0.15914C27.7811 0.129056 27.8655 0.115368 27.95 0.118907C28.144 0.118907 28.291 0.182907 28.41 0.293907C28.53 0.413907 28.586 0.569907 28.586 0.753907V9.12991C28.5871 9.29971 28.5247 9.4638 28.411 9.58991C28.3518 9.65159 28.2802 9.69998 28.2009 9.73187C28.1216 9.76377 28.0364 9.77844 27.951 9.77491L27.95 9.77591ZM30.61 1.29791C30.5319 1.30078 30.454 1.28753 30.3812 1.25897C30.3084 1.2304 30.2423 1.18715 30.187 1.13191C30.1326 1.07602 30.09 1.00979 30.0616 0.93713C30.0333 0.864472 30.0198 0.786866 30.022 0.708907C30.022 0.533907 30.077 0.395907 30.187 0.284907C30.243 0.230387 30.3094 0.187684 30.3822 0.159339C30.4551 0.130993 30.5329 0.117584 30.611 0.119907H37.229C37.404 0.119907 37.542 0.174907 37.653 0.284907C37.763 0.394907 37.818 0.542907 37.818 0.708907C37.8211 0.786971 37.808 0.864828 37.7796 0.937611C37.7512 1.01039 37.7081 1.07654 37.653 1.13191C37.5971 1.18661 37.5307 1.22949 37.4579 1.25801C37.385 1.28653 37.3072 1.3001 37.229 1.29791H30.61ZM33.925 9.77591C33.8399 9.77768 33.7554 9.76223 33.6765 9.73049C33.5975 9.69876 33.5258 9.65139 33.4657 9.59123C33.4055 9.53107 33.3582 9.45937 33.3264 9.38043C33.2947 9.3015 33.2792 9.21696 33.281 9.13191V0.109907H34.569V9.13091C34.5706 9.21593 34.5551 9.3004 34.5233 9.37927C34.4915 9.45814 34.4441 9.52979 34.384 9.58991C34.3239 9.65004 34.2522 9.69742 34.1734 9.72921C34.0945 9.76099 34.01 9.77654 33.925 9.77491V9.77591ZM39.89 9.77591C39.8049 9.77768 39.7204 9.76223 39.6415 9.73049C39.5625 9.69876 39.4908 9.65139 39.4307 9.59123C39.3705 9.53107 39.3232 9.45937 39.2914 9.38043C39.2597 9.3015 39.2442 9.21696 39.246 9.13191V0.753907C39.246 0.560907 39.309 0.413907 39.429 0.293907C39.4898 0.235076 39.5619 0.189224 39.641 0.15914C39.7201 0.129056 39.8045 0.115368 39.889 0.118907H42.117C42.734 0.118907 43.286 0.247907 43.765 0.504907C44.2305 0.750769 44.6191 1.12034 44.888 1.57291C45.155 2.02391 45.293 2.55791 45.293 3.15591C45.293 3.71791 45.155 4.21491 44.888 4.65591C44.6178 5.09839 44.2287 5.45599 43.765 5.68791C43.286 5.93591 42.734 6.05591 42.117 6.05591H40.534V9.12991C40.5351 9.29971 40.4727 9.4638 40.359 9.58991C40.2974 9.65111 40.2239 9.69909 40.1431 9.7309C40.0623 9.76271 39.9758 9.77769 39.889 9.77491L39.89 9.77591ZM40.534 4.85991H42.117C42.4641 4.86748 42.808 4.79206 43.12 4.63991C43.406 4.49191 43.636 4.28991 43.801 4.03191C43.969 3.76801 44.0559 3.46068 44.051 3.14791C44.0557 2.80933 43.9694 2.4757 43.801 2.18191C43.637 1.90696 43.4021 1.6811 43.121 1.52791C42.8119 1.36453 42.4665 1.28197 42.117 1.28791H40.534V4.85991ZM45.026 9.77591C44.9139 9.7809 44.8026 9.75418 44.705 9.69882C44.6073 9.64346 44.5273 9.56169 44.474 9.46291L42.246 5.87291L43.498 5.51291L45.523 8.78191C45.67 9.02091 45.688 9.24191 45.587 9.45291C45.477 9.67391 45.293 9.77591 45.026 9.77591ZM46.683 9.77591C46.5759 9.77794 46.4702 9.75174 46.3765 9.69996C46.2827 9.64817 46.2043 9.57263 46.149 9.48091C46.0888 9.38714 46.0539 9.27946 46.0474 9.16825C46.0409 9.05704 46.0631 8.94603 46.112 8.84591L49.592 0.542907C49.712 0.257907 49.914 0.109907 50.199 0.109907C50.493 0.109907 50.696 0.257907 50.807 0.542907L54.295 8.87291C54.387 9.10291 54.369 9.31491 54.249 9.49991C54.129 9.68391 53.955 9.77591 53.715 9.77591C53.5914 9.77356 53.4706 9.73836 53.365 9.67391C53.2548 9.60531 53.1706 9.50182 53.126 9.37991L50.061 1.75791H50.411L47.29 9.37991C47.2407 9.50487 47.1495 9.6088 47.032 9.67391C46.9278 9.74128 46.8071 9.77673 46.683 9.77591ZM47.336 7.64891L47.833 6.58191H52.684L53.181 7.64891H47.336ZM59.846 9.90491C59.2008 9.9077 58.5618 9.77909 57.968 9.52691C57.3957 9.28355 56.8789 8.9263 56.449 8.47691C56.0131 8.02297 55.6694 7.48876 55.437 6.90391C55.1902 6.28286 55.0649 5.6202 55.068 4.95191C55.068 4.26191 55.188 3.61791 55.437 3.01891C55.6694 2.43377 56.0131 1.89924 56.449 1.44491C56.8811 0.996036 57.3972 0.636544 57.968 0.386907C58.5596 0.126554 59.1997 -0.00534926 59.846 -9.30053e-05C60.481 -9.30053e-05 61.024 0.082907 61.484 0.248907C61.944 0.413907 62.404 0.689907 62.865 1.06791C62.929 1.11391 62.985 1.16891 63.022 1.22391C63.058 1.27891 63.086 1.33391 63.095 1.38091C63.105 1.43591 63.114 1.50091 63.114 1.57391C63.1152 1.6478 63.101 1.72114 63.0725 1.78929C63.0439 1.85745 63.0015 1.91894 62.948 1.96991C62.8399 2.07722 62.6952 2.13973 62.543 2.14491C62.3783 2.1507 62.2175 2.0947 62.092 1.98791C61.8114 1.73495 61.4912 1.52988 61.144 1.38091C60.822 1.24291 60.389 1.16891 59.854 1.16891C59.3813 1.16676 58.9139 1.26742 58.484 1.46391C58.051 1.66591 57.674 1.93291 57.351 2.28291C56.6777 3.00807 56.3059 3.9624 56.311 4.95191C56.311 5.47691 56.403 5.97391 56.587 6.43391C56.771 6.89391 57.02 7.28991 57.351 7.63991C57.673 7.98991 58.051 8.25691 58.483 8.44991C58.916 8.64291 59.367 8.74491 59.855 8.74491C60.278 8.74491 60.675 8.67091 61.052 8.52391C61.429 8.37691 61.788 8.18391 62.138 7.92491C62.2533 7.82885 62.4003 7.77938 62.5502 7.78623C62.7001 7.79308 62.842 7.85574 62.948 7.96191C63.049 8.06391 63.095 8.21091 63.095 8.38591C63.0939 8.46766 63.0783 8.54858 63.049 8.62491C63.0152 8.70988 62.9618 8.78562 62.893 8.84591C62.4697 9.19918 61.9863 9.47353 61.466 9.65591C60.9412 9.81834 60.3953 9.90225 59.846 9.90491ZM63.076 8.36691L61.843 8.11891V5.89991H60.14C59.9731 5.90326 59.8104 5.84807 59.68 5.74391C59.6216 5.69399 59.5748 5.63184 59.543 5.56186C59.5112 5.49188 59.4952 5.41577 59.496 5.33891C59.4941 5.26189 59.5096 5.18543 59.5415 5.11529C59.5734 5.04514 59.6207 4.98313 59.68 4.93391C59.8075 4.82442 59.9722 4.7682 60.14 4.77691H62.45C62.6207 4.77243 62.7863 4.83529 62.911 4.95191C63.031 5.07191 63.086 5.22791 63.086 5.41191V8.36691H63.076ZM65.774 9.77591C65.6889 9.77768 65.6044 9.76223 65.5255 9.73049C65.4465 9.69876 65.3748 9.65139 65.3147 9.59123C65.2545 9.53107 65.2072 9.45937 65.1754 9.38043C65.1437 9.3015 65.1282 9.21696 65.13 9.13191V0.753907C65.13 0.560907 65.194 0.413907 65.314 0.293907C65.3748 0.235076 65.4469 0.189224 65.526 0.15914C65.6051 0.129056 65.6895 0.115368 65.774 0.118907H71.37C71.564 0.118907 71.71 0.173907 71.83 0.283907C71.8893 0.340646 71.9356 0.40951 71.9658 0.485793C71.996 0.562075 72.0094 0.643979 72.005 0.725907C72.0087 0.804992 71.995 0.883922 71.9649 0.957164C71.9349 1.03041 71.8892 1.09619 71.831 1.14991C71.711 1.25991 71.564 1.30591 71.371 1.30591H66.418V4.31591H69.971C70.165 4.31591 70.311 4.37091 70.431 4.48191C70.551 4.59191 70.606 4.73991 70.606 4.90491C70.6096 4.98408 70.5958 5.06307 70.5656 5.13633C70.5353 5.20959 70.4894 5.27533 70.431 5.32891C70.3055 5.44249 70.1401 5.50181 69.971 5.49391H66.418V8.58691H71.37C71.5374 8.58078 71.7012 8.63669 71.83 8.74391C71.8884 8.79729 71.9343 8.86285 71.9645 8.93595C71.9948 9.00904 72.0086 9.08788 72.005 9.16691C72.0095 9.24876 71.9963 9.33062 71.9662 9.4069C71.9362 9.48317 71.8901 9.55208 71.831 9.60891C71.7056 9.72276 71.5402 9.78243 71.371 9.77491H65.774V9.77591Z" fill="white"/>
</svg>
<svg id='logo-oep' width="53" height="52" viewBox="0 0 53 52" fill="none" xmlns="http://www.w3.org/2000/svg">
<g clip-path="url(#clip0_4570_151386)">
<path opacity="0.4" d="M43.156 26.7344C45.8497 26.7344 48.0745 27.6006 49.8302 29.3331C51.61 31.0416 52.4999 33.2192 52.4999 35.8661C52.4999 38.513 51.61 40.7026 49.8302 42.4351C48.0504 44.1676 45.8257 45.0339 43.156 45.0339H34.1973V51.9999H27.2344V26.7344H43.156ZM42.3262 38.934C43.2161 38.934 43.9376 38.6573 44.4909 38.1039C45.0681 37.5264 45.3567 36.7805 45.3567 35.8661C45.3567 35.2886 45.2244 34.7713 44.9598 34.314C44.7193 33.8328 44.3706 33.4598 43.9136 33.1951C43.4566 32.9305 42.9275 32.7982 42.3262 32.7982H34.1973V38.934H42.3262ZM48.1519 47.6519H52.4999V51.9999H48.1519V47.6519Z" fill="white"/>
<path opacity="0.4" d="M44.9285 0H52.5V25.2656H46.0622L34.806 11.55V25.2656H27.2344V0H34.0368L44.9285 13.2463V0ZM7.41787 45.9443H25.7656V52H0.5V26.7344H25.7656V32.7902H7.41787V36.4663H25.7656V42.1957H7.41787V45.9443Z" fill="white"/>
<path opacity="0.4" fill-rule="evenodd" clip-rule="evenodd" d="M23.0419 22.806L23.0154 22.829C21.1397 20.8133 18.655 19.3726 15.8544 18.8C18.0023 17.7816 19.4877 15.5927 19.4877 13.0568C19.4877 10.596 18.0891 8.46204 16.0438 7.40723C16.0189 7.39447 15.9979 7.37509 15.9832 7.3512C15.9685 7.32732 15.9607 7.29985 15.9606 7.27181V4.28904C15.9606 4.15326 15.795 4.08694 15.7013 4.18516L14.786 5.14451C14.7699 5.16133 14.7502 5.1742 14.7283 5.18211C14.7065 5.19003 14.6831 5.19277 14.66 5.19012C14.6369 5.18748 14.6147 5.17951 14.5952 5.16686C14.5757 5.1542 14.5594 5.1372 14.5476 5.11719L13.2684 2.95389C13.2101 2.85537 13.0676 2.85537 13.0094 2.95389L11.7302 5.11719C11.7184 5.1372 11.7021 5.15419 11.6825 5.16684C11.663 5.17949 11.6409 5.18745 11.6178 5.19009C11.5947 5.19273 11.5713 5.18998 11.5494 5.18207C11.5276 5.17415 11.5078 5.16127 11.4918 5.14445L10.5765 4.1851C10.4828 4.08694 10.3172 4.15326 10.3172 4.28904V7.27181C10.317 7.29984 10.3092 7.3273 10.2946 7.35118C10.2799 7.37506 10.2589 7.39445 10.234 7.40723C8.18866 8.46204 6.79007 10.596 6.79007 13.0568C6.79007 15.5927 8.2755 17.7816 10.4234 18.8C7.62274 19.3726 5.13805 20.8133 3.26238 22.829L3.23578 22.806C2.23262 21.8522 1.46861 20.6752 1.0058 19.3707C0.5 17.9448 0.5 16.1691 0.5 12.6176C0.5 9.06606 0.5 7.29035 1.0058 5.86444C1.89383 3.36092 3.86664 1.39148 6.37438 0.504954C7.80263 0 9.5814 0 13.1389 0C16.6964 0 18.4751 0 19.9034 0.504954C22.4111 1.39148 24.3839 3.36092 25.272 5.86444C25.7778 7.29035 25.7778 9.06606 25.7778 12.6176C25.7778 16.1691 25.7778 17.9448 25.272 19.3707C24.8092 20.6753 24.0452 21.8523 23.0419 22.806Z" fill="white"/>
<path opacity="0.4" d="M12.8172 4.82666C12.8051 4.80456 12.7988 4.77979 12.7988 4.75462C12.7988 4.72945 12.8051 4.70468 12.8172 4.68258L13.0069 4.33471C13.064 4.23023 13.2141 4.23023 13.2711 4.33471L13.4608 4.68258C13.4729 4.70468 13.4792 4.72945 13.4792 4.75462C13.4792 4.77979 13.4729 4.80456 13.4608 4.82666L13.2711 5.17453C13.2141 5.27901 13.064 5.27901 13.0069 5.17453L12.8172 4.82666Z" fill="white"/>
</g>
<defs>
<clipPath id="clip0_4570_151386">
<rect width="52" height="52" fill="white" transform="translate(0.5)"/>
</clipPath>
</defs>
</svg>

<svg id="tg" width="36" height="36" viewBox="0 0 36 36" fill="none" xmlns="http://www.w3.org/2000/svg">
<rect width="36" height="36" rx="18" fill="url(#paint0_linear_4570_151392)"/>
<path fill-rule="evenodd" clip-rule="evenodd" d="M9.3749 16.9574C14.7436 14.8406 18.3236 13.445 20.1148 12.7707C25.2292 10.8456 26.2919 10.5112 26.9846 10.5001C27.1369 10.4977 27.4776 10.5319 27.6982 10.6939C27.8845 10.8307 27.9358 11.0155 27.9603 11.1452C27.9848 11.275 28.0154 11.5705 27.9911 11.8014C27.714 14.4367 26.5147 20.8322 25.9046 23.7838C25.6465 25.0328 25.1382 25.4516 24.6461 25.4926C23.5766 25.5816 22.7645 24.8529 21.7287 24.2384C20.1078 23.2769 19.1921 22.6783 17.6188 21.74C15.8005 20.6556 16.9792 20.0596 18.0154 19.0856C18.2866 18.8307 22.9987 14.9519 23.0899 14.6C23.1013 14.556 23.1119 14.392 23.0042 14.3053C22.8965 14.2187 22.7376 14.2483 22.6229 14.2719C22.4604 14.3053 19.871 15.8542 14.8549 18.9185C14.1199 19.3753 13.4542 19.5978 12.8577 19.5862C12.2001 19.5733 10.9353 19.2497 9.99498 18.9731C8.84166 18.6338 7.92503 18.4544 8.00485 17.8782C8.04642 17.5781 8.5031 17.2712 9.3749 16.9574Z" fill="white"/>
<defs>
<linearGradient id="paint0_linear_4570_151392" x1="18" y1="0" x2="18" y2="35.733" gradientUnits="userSpaceOnUse">
<stop stop-color="#2AABEE"/>
<stop offset="1" stop-color="#229ED9"/>
</linearGradient>
</defs>
</svg>
<svg id="insta" width="36" height="36" viewBox="0 0 36 36" fill="none" xmlns="http://www.w3.org/2000/svg">
<rect width="36" height="36" rx="18" fill="url(#paint0_linear_4570_151393)"/>
<path d="M21.9387 27.0001H14.7276C11.9368 27.0001 9.6665 24.7297 9.6665 21.939V14.7278C9.6665 11.9371 11.9368 9.66675 14.7276 9.66675H21.9387C24.7295 9.66675 26.9998 11.9371 26.9998 14.7278V21.939C26.9998 24.7297 24.7295 27.0001 21.9387 27.0001ZM14.7276 11.1357C12.7469 11.1357 11.1354 12.7471 11.1354 14.7278V21.939C11.1354 23.9197 12.7469 25.5312 14.7276 25.5312H21.9387C23.9195 25.5312 25.5309 23.9197 25.5309 21.939V14.7278C25.5309 12.7471 23.9195 11.1357 21.9387 11.1357H14.7276Z" fill="white"/>
<path d="M18.3334 23.0339C15.7415 23.0339 13.6328 20.9252 13.6328 18.3334C13.6328 15.7415 15.7415 13.6328 18.3334 13.6328C20.9252 13.6328 23.0339 15.7415 23.0339 18.3334C23.0339 20.9252 20.9252 23.0339 18.3334 23.0339ZM18.3334 15.1017C16.5513 15.1017 15.1017 16.5513 15.1017 18.3334C15.1017 20.1154 16.5513 21.565 18.3334 21.565C20.1154 21.565 21.565 20.1154 21.565 18.3334C21.565 16.5513 20.1154 15.1017 18.3334 15.1017Z" fill="white"/>
<path d="M23.7113 13.6279C23.7113 13.9991 23.4102 14.3002 23.039 14.3002C22.6678 14.3002 22.3667 13.9991 22.3667 13.6279C22.3667 13.2566 22.6678 12.9556 23.039 12.9556C23.4102 12.9556 23.7113 13.2566 23.7113 13.6279Z" fill="white"/>
<defs>
<linearGradient id="paint0_linear_4570_151393" x1="3.29546" y1="32.7048" x2="32.7045" y2="3.29524" gradientUnits="userSpaceOnUse">
<stop stop-color="#FFC107"/>
<stop offset="0.507" stop-color="#F44336"/>
<stop offset="0.99" stop-color="#9C27B0"/>
</linearGradient>
</defs>
</svg>

<svg id="tiktok" width="36" height="36" viewBox="0 0 36 36" fill="none" xmlns="http://www.w3.org/2000/svg">
<rect width="36" height="36" rx="18" fill="#00F7EF"/>
<path d="M21.8335 12.85C21.2638 12.1997 20.9499 11.3645 20.9501 10.5H18.3751V20.8333C18.3553 21.3925 18.1192 21.9222 17.7166 22.3108C17.314 22.6994 16.7763 22.9166 16.2168 22.9167C15.0335 22.9167 14.0501 21.95 14.0501 20.75C14.0501 19.3167 15.4335 18.2417 16.8585 18.6833V16.05C13.9835 15.6667 11.4668 17.9 11.4668 20.75C11.4668 23.525 13.7668 25.5 16.2085 25.5C18.8251 25.5 20.9501 23.375 20.9501 20.75V15.5083C21.9943 16.2582 23.2479 16.6605 24.5335 16.6583V14.0833C24.5335 14.0833 22.9668 14.1583 21.8335 12.85Z" fill="white"/>
</svg>

<svg id='tg-black' width="30" height="30" viewBox="0 0 30 30" fill="none" xmlns="http://www.w3.org/2000/svg">
<rect width="30" height="30" rx="15" fill="white" fill-opacity="0.1"/>
<path fill-rule="evenodd" clip-rule="evenodd" d="M8.96243 14.2702C12.7205 12.7884 15.2265 11.8115 16.4804 11.3395C20.0604 9.99191 20.8043 9.75781 21.2892 9.75008C21.3959 9.74838 21.6343 9.7723 21.7887 9.88572C21.9192 9.98149 21.955 10.1109 21.9722 10.2017C21.9894 10.2925 22.0108 10.4993 21.9938 10.6609C21.7998 12.5057 20.9603 16.9825 20.5332 19.0487C20.3525 19.923 19.9967 20.2161 19.6522 20.2448C18.9036 20.3071 18.3351 19.7971 17.6101 19.3669C16.4755 18.6938 15.8345 18.2748 14.7332 17.618C13.4604 16.8589 14.2855 16.4417 15.0108 15.7599C15.2006 15.5815 18.4991 12.8663 18.5629 12.62C18.5709 12.5892 18.5783 12.4744 18.503 12.4137C18.4276 12.3531 18.3163 12.3738 18.236 12.3903C18.1223 12.4137 16.3097 13.4979 12.7984 15.643C12.2839 15.9627 11.8179 16.1185 11.4004 16.1103C10.9401 16.1013 10.0547 15.8748 9.39648 15.6812C8.58916 15.4437 7.94752 15.3181 8.00339 14.9147C8.03249 14.7047 8.35217 14.4898 8.96243 14.2702Z" fill="white"/>
</svg>
<svg id="calendar" width="24" height="24" viewBox="0 0 24 24" fill="none" xmlns="http://www.w3.org/2000/svg">
<path d="M16 3V7M8 3V7M4 11H20M7 14H7.013M10.01 14H10.015M13.01 14H13.015M16.015 14H16.02M13.015 17H13.02M7.01 17H7.015M10.01 17H10.015M4 7C4 6.46957 4.21071 5.96086 4.58579 5.58579C4.96086 5.21071 5.46957 5 6 5H18C18.5304 5 19.0391 5.21071 19.4142 5.58579C19.7893 5.96086 20 6.46957 20 7V19C20 19.5304 19.7893 20.0391 19.4142 20.4142C19.0391 20.7893 18.5304 21 18 21H6C5.46957 21 4.96086 20.7893 4.58579 20.4142C4.21071 20.0391 4 19.5304 4 19V7Z" stroke="white" stroke-linecap="round" stroke-linejoin="round"/>
</svg>

<svg id="offers-s" width="21" height="21" viewBox="0 0 21 21" fill="none" xmlns="http://www.w3.org/2000/svg">
<path d="M3.83301 16.3333C3.83301 16.7753 4.0086 17.1992 4.32116 17.5118C4.63372 17.8244 5.05765 18 5.49967 18C5.9417 18 6.36563 17.8244 6.67819 17.5118C6.99075 17.1992 7.16634 16.7753 7.16634 16.3333C7.16634 15.8913 6.99075 15.4673 6.67819 15.1548C6.36563 14.8422 5.9417 14.6666 5.49967 14.6666C5.05765 14.6666 4.63372 14.8422 4.32116 15.1548C4.0086 15.4673 3.83301 15.8913 3.83301 16.3333ZM12.9997 16.3333C12.9997 16.7753 13.1753 17.1992 13.4878 17.5118C13.8004 17.8244 14.2243 18 14.6663 18C15.1084 18 15.5323 17.8244 15.8449 17.5118C16.1574 17.1992 16.333 16.7753 16.333 16.3333C16.333 15.8913 16.1574 15.4673 15.8449 15.1548C15.5323 14.8422 15.1084 14.6666 14.6663 14.6666C14.2243 14.6666 13.8004 14.8422 13.4878 15.1548C13.1753 15.4673 12.9997 15.8913 12.9997 16.3333Z" stroke="inherit" stroke-linecap="round" stroke-linejoin="round"/>
<path d="M14.6663 14.6667H5.49967V3H3.83301" stroke="inherit" stroke-linecap="round" stroke-linejoin="round"/>
<path d="M5.5 4.66663L17.1667 5.49996L16.3333 11.3333H5.5" stroke="inherit" stroke-linecap="round" stroke-linejoin="round"/>
</svg>

<svg id="leads" width="20" height="21" viewBox="0 0 20 21" fill="none" xmlns="http://www.w3.org/2000/svg">
<path d="M2.5 18V16.3333C2.5 15.4493 2.85119 14.6014 3.47631 13.9763C4.10143 13.3512 4.94928 13 5.83333 13H9.16667C10.0507 13 10.8986 13.3512 11.5237 13.9763C12.1488 14.6014 12.5 15.4493 12.5 16.3333V18M13.3333 3.10833C14.0503 3.29192 14.6859 3.70892 15.1397 4.29359C15.5935 4.87827 15.8399 5.59736 15.8399 6.3375C15.8399 7.07764 15.5935 7.79673 15.1397 8.38141C14.6859 8.96608 14.0503 9.38308 13.3333 9.56667M17.5 18V16.3333C17.4958 15.5976 17.2483 14.884 16.7961 14.3037C16.3439 13.7233 15.7124 13.3089 15 13.125M4.16667 6.33333C4.16667 7.21739 4.51786 8.06523 5.14298 8.69036C5.7681 9.31548 6.61594 9.66667 7.5 9.66667C8.38405 9.66667 9.2319 9.31548 9.85702 8.69036C10.4821 8.06523 10.8333 7.21739 10.8333 6.33333C10.8333 5.44928 10.4821 4.60143 9.85702 3.97631C9.2319 3.35119 8.38405 3 7.5 3C6.61594 3 5.7681 3.35119 5.14298 3.97631C4.51786 4.60143 4.16667 5.44928 4.16667 6.33333Z" stroke="inherit" stroke-linecap="round" stroke-linejoin="round"/>
</svg>

<svg id="filters" width="17" height="16" viewBox="0 0 17 16" fill="none" xmlns="http://www.w3.org/2000/svg">
<path d="M3.16675 2.66675H13.8334V4.11475C13.8333 4.46834 13.6928 4.80742 13.4427 5.05741L10.5001 8.00008V12.6667L6.50008 14.0001V8.33341L3.51341 5.04808C3.29038 4.8027 3.16678 4.48301 3.16675 4.15141V2.66675Z" stroke="white" stroke-linecap="round" stroke-linejoin="round"/>
</svg>
<svg id="trash" width="24" height="24" viewBox="0 0 24 24" fill="none" xmlns="http://www.w3.org/2000/svg">
<path d="M4 7H20M10 11V17M14 11V17M5 7L6 19C6 19.5304 6.21071 20.0391 6.58579 20.4142C6.96086 20.7893 7.46957 21 8 21H16C16.5304 21 17.0391 20.7893 17.4142 20.4142C17.7893 20.0391 18 19.5304 18 19L19 7M9 7V4C9 3.73478 9.10536 3.48043 9.29289 3.29289C9.48043 3.10536 9.73478 3 10 3H14C14.2652 3 14.5196 3.10536 14.7071 3.29289C14.8946 3.48043 15 3.73478 15 4V7" stroke="#121311" stroke-linecap="round" stroke-linejoin="round"/>
</svg>
<svg id="search" width="24" height="24" viewBox="0 0 24 24" fill="none" xmlns="http://www.w3.org/2000/svg">
<path d="M11 19C15.4183 19 19 15.4183 19 11C19 6.58172 15.4183 3 11 3C6.58172 3 3 6.58172 3 11C3 15.4183 6.58172 19 11 19Z" stroke="#C3C5C0" stroke-linecap="round" stroke-linejoin="round"/>
<path d="M20.9999 20.9999L16.6499 16.6499" stroke="#C3C5C0" stroke-linecap="round" stroke-linejoin="round"/>
</svg>
<svg id="pig-money" width="24" height="24" viewBox="0 0 24 24" fill="none" xmlns="http://www.w3.org/2000/svg">
<path d="M15.0001 11V11.01M5.17307 8.37802C4.73447 8.04092 4.39762 7.58912 4.19973 7.07255C4.00185 6.55597 3.95065 5.99475 4.05179 5.4509C4.15293 4.90704 4.40247 4.40174 4.77283 3.99084C5.14319 3.57995 5.61994 3.27945 6.15041 3.12257C6.68087 2.96568 7.24438 2.95852 7.77866 3.10188C8.31294 3.24523 8.79718 3.53352 9.17786 3.93487C9.55854 4.33623 9.82084 4.83502 9.93577 5.37613C10.0507 5.91724 10.0138 6.47958 9.82907 7.00102" stroke="#121311" stroke-linecap="round" stroke-linejoin="round"/>
<path d="M16 4V7.803C17.2376 8.51919 18.1798 9.65249 18.658 11H19.999C20.2642 11 20.5186 11.1054 20.7061 11.2929C20.8937 11.4804 20.999 11.7348 20.999 12V14C20.999 14.2652 20.8937 14.5196 20.7061 14.7071C20.5186 14.8946 20.2642 15 19.999 15H18.657C18.321 15.95 17.75 16.8 16.999 17.473V19.5C16.999 19.8978 16.841 20.2794 16.5597 20.5607C16.2784 20.842 15.8968 21 15.499 21C15.1012 21 14.7197 20.842 14.4384 20.5607C14.157 20.2794 13.999 19.8978 13.999 19.5V18.917C13.6686 18.9725 13.3341 19.0003 12.999 19H8.99901C8.66395 19.0003 8.32945 18.9725 7.99901 18.917V19.5C7.99901 19.8978 7.84098 20.2794 7.55967 20.5607C7.27837 20.842 6.89684 21 6.49901 21C6.10119 21 5.71966 20.842 5.43835 20.5607C5.15705 20.2794 4.99901 19.8978 4.99901 19.5V17.473C4.09298 16.663 3.45429 15.5969 3.1675 14.4159C2.8807 13.2348 2.95933 11.9946 3.39296 10.8592C3.82659 9.72387 4.59478 8.74697 5.59585 8.05783C6.59692 7.36869 7.78367 6.9998 8.99901 7H11.499L16 4Z" stroke="#121311" stroke-linecap="round" stroke-linejoin="round"/>
</svg>

<svg id="creditcard" width="24" height="24" viewBox="0 0 24 24" fill="none" xmlns="http://www.w3.org/2000/svg">
<path d="M3 10H21M7 15H7.01M11 15H13M3 8C3 7.20435 3.31607 6.44129 3.87868 5.87868C4.44129 5.31607 5.20435 5 6 5H18C18.7956 5 19.5587 5.31607 20.1213 5.87868C20.6839 6.44129 21 7.20435 21 8V16C21 16.7956 20.6839 17.5587 20.1213 18.1213C19.5587 18.6839 18.7956 19 18 19H6C5.20435 19 4.44129 18.6839 3.87868 18.1213C3.31607 17.5587 3 16.7956 3 16V8Z" stroke="#121311" stroke-linecap="round" stroke-linejoin="round"/>
</svg>
<svg id="plus" width="21" height="20" viewBox="0 0 21 20" fill="none" xmlns="http://www.w3.org/2000/svg">
<rect x="0.5" width="20" height="20" rx="10" fill="white"/>
<path d="M10.5 6.5V13.5" stroke="#121311" stroke-linecap="round" stroke-linejoin="round"/>
<path d="M7 10H14" stroke="#121311" stroke-linecap="round" stroke-linejoin="round"/>
</svg>

<svg id="coin-info" width="24" height="24" viewBox="0 0 24 24" fill="none" xmlns="http://www.w3.org/2000/svg">
<path d="M3 12C3 13.1819 3.23279 14.3522 3.68508 15.4442C4.13738 16.5361 4.80031 17.5282 5.63604 18.364C6.47177 19.1997 7.46392 19.8626 8.55585 20.3149C9.64778 20.7672 10.8181 21 12 21C13.1819 21 14.3522 20.7672 15.4442 20.3149C16.5361 19.8626 17.5282 19.1997 18.364 18.364C19.1997 17.5282 19.8626 16.5361 20.3149 15.4442C20.7672 14.3522 21 13.1819 21 12C21 10.8181 20.7672 9.64778 20.3149 8.55585C19.8626 7.46392 19.1997 6.47177 18.364 5.63604C17.5282 4.80031 16.5361 4.13738 15.4442 3.68508C14.3522 3.23279 13.1819 3 12 3C10.8181 3 9.64778 3.23279 8.55585 3.68508C7.46392 4.13738 6.47177 4.80031 5.63604 5.63604C4.80031 6.47177 4.13738 7.46392 3.68508 8.55585C3.23279 9.64778 3 10.8181 3 12Z" fill="#FFBF00" stroke="#FFBF00" stroke-linecap="round" stroke-linejoin="round"/>
<path d="M6 12H8" stroke="white" stroke-linecap="round" stroke-linejoin="round"/>
<path d="M16 12H18" stroke="white" stroke-linecap="round" stroke-linejoin="round"/>
<path d="M8 15V8L12 12L16 8V15" stroke="white" stroke-linecap="round" stroke-linejoin="round"/>
</svg>

</svg>
